<svg xmlns="http://www.w3.org/2000/svg"><symbol id="calendar" viewBox="0 0 16 17"><title>Group</title><g id="Symbols" fill="none" fill-rule="evenodd" stroke="none" stroke-width="1"><g id="Group" stroke="currentColor"><rect id="Rectangle" width="15" height="15" x=".5" y="1.5" rx="2"/><path id="Line-10" stroke-linecap="square" d="M.5 5.5h15"/><path id="Line-Copy" stroke-linecap="round" d="M12.5 2.5v-2"/><path id="Line" stroke-linecap="round" d="M3.5 2.5v-2"/></g></g></symbol><symbol id="chevron-down" fill="currentColor" viewBox="0 0 24 24"><title>chevron-down</title><path fill="none" stroke="currentColor" stroke-linecap="round" stroke-linejoin="round" stroke-width="2" d="m5 8.5 7 7 7-7"/></symbol><symbol id="chevron" viewBox="0 0 8 12"><title>chevron</title><path fill="currentColor" fill-rule="evenodd" d="m.424 1.063.639-.639a.6.6 0 0 1 .848 0l5.152 5.152a.6.6 0 0 1 0 .848L1.91 11.576a.6.6 0 0 1-.848 0l-.639-.639a.6.6 0 0 1 0-.848L4.512 6 .424 1.911a.6.6 0 0 1 0-.848"/></symbol></svg>